<svg id="creative-background" xmlns="http://www.w3.org/2000/svg" width="32" height="32" viewBox="0 0 32 32"> <defs> <clipPath id="clip-path"> <path id="Rectangle_2439" data-name="Rectangle 2439" class="cls-1" d="M0 0h32v32H0z"/> </clipPath> <style> .cls-1{fill:#fb1d1b}.cls-2{clip-path:url(#clip-path)} </style> </defs> <g id="Group_833" data-name="Group 833" class="cls-2"> <g id="Group_832" data-name="Group 832"> <g id="Group_831" data-name="Group 831" class="cls-2"> <path id="Path_2994" data-name="Path 2994" class="cls-1" d="M26.244 8H13.269a2 2 0 0 0-2 2v17.333a2 2 0 0 0 2 2h12.975a2 2 0 0 0 2-2V10a2 2 0 0 0-2-2m-6.975 14v6H16.6v-2a2 2 0 0 0-2-2h-2v-.977l4.039-2.693a2 2 0 0 0 0-3.329L12.6 14.309V13a3.156 3.156 0 0 1 1.827-.559h.024c1.429.009 3.039.9 4.659 2.581 1.778 1.842 3.59 2.778 5.39 2.778h.049a5.038 5.038 0 0 0 2.361-.618V20h-5.642a2 2 0 0 0-2 2M12.6 15.912l3.3 2.2a.667.667 0 0 1 0 1.11l-3.3 2.2zm.667-6.579h12.977a.667.667 0 0 1 .666.667v5.591a3.858 3.858 0 0 1-2.4.872h-.01c-1.425 0-2.915-.8-4.429-2.365-1.9-1.971-3.789-2.976-5.609-2.989a4.44 4.44 0 0 0-1.861.379V10a.667.667 0 0 1 .667-.667m-.667 18v-2h2a.667.667 0 0 1 .667.667v2h-2a.667.667 0 0 1-.667-.667M26.244 28H20.6v-6a.667.667 0 0 1 .667-.667h5.643v6a.667.667 0 0 1-.667.667" transform="translate(-3.756 -2.667)"/> </g> </g> </g></svg>