<svg id="_1-page" data-name="1-page" xmlns="http://www.w3.org/2000/svg" width="32" height="32" viewBox="0 0 32 32"> <defs> <style> .cls-2{fill:red} </style> </defs> <g id="Group_108" data-name="Group 108" transform="translate(6.667 4.667)"> <path id="Path_289" data-name="Path 289" class="cls-2" d="m28.1 12.9-8.067-6.133a1.164 1.164 0 0 0-.8-.267H12.3a1.964 1.964 0 0 0-2 2v19.333a1.964 1.964 0 0 0 2 2h14.333a1.964 1.964 0 0 0 2-2V13.967A2.032 2.032 0 0 0 28.1 12.9zm-8-4.4 5.867 4.467h-5.2a.63.63 0 0 1-.667-.667zm6.467 20H12.3a.63.63 0 0 1-.667-.667V8.5a.63.63 0 0 1 .667-.667h6.467V12.3a1.964 1.964 0 0 0 2 2h6.467v13.533a.63.63 0 0 1-.667.667z" transform="translate(-10.3 -6.5)"/> <path id="Path_290" data-name="Path 290" class="cls-2" d="M25.9 22.2h-8.933a.667.667 0 0 0 0 1.333h9a.63.63 0 0 0 .667-.667.685.685 0 0 0-.734-.666z" transform="translate(-12.3 -11.733)"/> <path id="Path_291" data-name="Path 291" class="cls-2" d="M25.9 28.2h-8.933a.667.667 0 0 0 0 1.333h9a.63.63 0 0 0 .667-.667.685.685 0 0 0-.734-.666z" transform="translate(-12.3 -13.733)"/> <path id="Path_292" data-name="Path 292" class="cls-2" d="M25.9 34.2h-8.933a.667.667 0 0 0 0 1.333h9a.63.63 0 0 0 .667-.667.685.685 0 0 0-.734-.666z" transform="translate(-12.3 -15.733)"/> </g></svg>