<svg id="layout" xmlns="http://www.w3.org/2000/svg" width="32" height="32" viewBox="0 0 32 32"> <defs> <style> .cls-2{fill:red} </style> </defs> <g id="layout-2" data-name="layout" transform="translate(5.333 5.333)"> <g id="Group_39" data-name="Group 39"> <path id="Path_243" data-name="Path 243" class="cls-2" d="M16.133 7.6h-7.2A1.337 1.337 0 0 0 7.6 8.933v11.2a1.337 1.337 0 0 0 1.333 1.333h7.2a1.337 1.337 0 0 0 1.333-1.333v-11.2A1.337 1.337 0 0 0 16.133 7.6zm-7.2 12.533v-11.2h7.2v11.2z" transform="translate(-7.6 -7.6)"/> <path id="Path_244" data-name="Path 244" class="cls-2" d="M34.1 7.6h-7.267A1.337 1.337 0 0 0 25.5 8.933V15.6a1.337 1.337 0 0 0 1.333 1.333h7.2a1.337 1.337 0 0 0 1.334-1.333V8.933A1.242 1.242 0 0 0 34.1 7.6zm-7.267 8V8.933h7.2V15.6z" transform="translate(-13.567 -7.6)"/> <path id="Path_245" data-name="Path 245" class="cls-2" d="M16.133 31.6h-7.2A1.337 1.337 0 0 0 7.6 32.933v3.2a1.337 1.337 0 0 0 1.333 1.333h7.2a1.337 1.337 0 0 0 1.333-1.333v-3.2a1.337 1.337 0 0 0-1.333-1.333zm-7.2 4.533v-3.2h7.2v3.2z" transform="translate(-7.6 -15.6)"/> <path id="Path_246" data-name="Path 246" class="cls-2" d="M34.8 29.3h-3.6v-3.933a.667.667 0 1 0-1.333 0V29.3h-3.6a.667.667 0 0 0 0 1.333h3.6V34.5a.667.667 0 0 0 1.333 0v-3.867h3.6a.63.63 0 0 0 .667-.667.668.668 0 0 0-.667-.666z" transform="translate(-13.6 -13.3)"/> </g> </g></svg>