<svg xmlns="http://www.w3.org/2000/svg" width="32" height="32" viewBox="0 0 32 32"> <path data-name="Path 242" d="M29.233 25.467h-2.2L18.7 5.4a.65.65 0 0 0-1.2 0l-6.867 16.467-1.467 3.6h-2.2a.667.667 0 1 0 0 1.333H12.3a.667.667 0 0 0 0-1.333h-1.667l1.134-2.667H20.5l1.133 2.667h-1.666a.667.667 0 0 0 0 1.333H29.3a.63.63 0 0 0 .667-.667.685.685 0 0 0-.734-.666zm-16.933-4 3.8-9.2 3.8 9.267h-7.6zm9.267.4-4.733-11.4L18.1 7.4l7.467 18.067h-2.534z" transform="translate(-2.3 .333)" style="fill:red"/></svg>