<svg id="interests" xmlns="http://www.w3.org/2000/svg" width="32" height="32" viewBox="0 0 32 32"> <defs> <style> .cls-2{fill:red} </style> </defs> <g id="Layer_1" transform="translate(7.333 3.333)"> <g id="Group_25" data-name="Group 25"> <path id="Path_150" data-name="Path 150" class="cls-2" d="M25.6 23.586H15.2a2.006 2.006 0 0 1-2-2c0-6.067.667-9.933 2.2-11.867a5.016 5.016 0 0 1 4.933-2.2h.467a8.839 8.839 0 0 0 .8-.8c.667-.8 1.467-1.733 2.667-1.533a.661.661 0 0 1 .533.733 4.288 4.288 0 0 0 .733 2.933 13.814 13.814 0 0 0 2.133 1.533 26.344 26.344 0 0 1 2.467 1.8 1.976 1.976 0 0 1 .333 2.667l-.8 1.133a2.076 2.076 0 0 1-2.6.6l-.933-.533A2.644 2.644 0 0 0 24 16.12c-.133.067-.2.067-.333.133l2.733 2.4a3.949 3.949 0 0 1 1.2 2.8 2.038 2.038 0 0 1-2 2.133zm-6.133-14.8A3.694 3.694 0 0 0 16.4 10.52c-1.267 1.667-1.933 5.333-1.867 11a.717.717 0 0 0 .667.667h10.4a.63.63 0 0 0 .667-.667 2.865 2.865 0 0 0-.733-1.867L21 15.72c-.133-.133-.2-.2-.267-.2a.644.644 0 0 1 0-.933.714.714 0 0 1 .933-.067l.2.133a1.571 1.571 0 0 0 1 .467 6.457 6.457 0 0 0 .733-.2 3.792 3.792 0 0 1 3.2 0l.933.533a.727.727 0 0 0 .867-.2l.8-1.133a.632.632 0 0 0-.133-.867c-.6-.533-1.533-1.133-2.333-1.733a16.134 16.134 0 0 1-2.267-1.733 4.911 4.911 0 0 1-1.133-3.133 5.311 5.311 0 0 0-.867.867c-.533.667-1.067 1.267-1.8 1.267h-.533a3.718 3.718 0 0 1-.866-.002z" transform="translate(-11.867 -5.159)"/> <path id="Path_151" data-name="Path 151" class="cls-2" d="M26.267 40.133H13.2a1.964 1.964 0 0 1-2-2V36.8a1.964 1.964 0 0 1 2-2h13.067a1.964 1.964 0 0 1 2 2v1.333a2.051 2.051 0 0 1-2 2zm-13.067-4a.668.668 0 0 0-.667.667v1.333a.668.668 0 0 0 .667.667h13.067a.668.668 0 0 0 .667-.667V36.8a.668.668 0 0 0-.667-.667z" transform="translate(-11.2 -15.039)"/> </g> </g></svg>