<svg id="_3-pages" data-name="3-pages" xmlns="http://www.w3.org/2000/svg" width="32" height="32" viewBox="0 0 32 32"> <defs> <style> .cls-2{fill:red} </style> </defs> <g id="Group_68" data-name="Group 68" transform="translate(4.667 2.667)"> <path id="Path_357" data-name="Path 357" class="cls-2" d="M19.569 34.949H9.444a2 2 0 0 1-2-2V18.1a2 2 0 0 1 2-2h10.125a2 2 0 0 1 2 2v14.849a2 2 0 0 1-2 2zM9.444 17.434a.668.668 0 0 0-.667.667v14.848a.667.667 0 0 0 .667.667h10.125a.667.667 0 0 0 .667-.667V18.1a.667.667 0 0 0-.667-.667z" transform="translate(-7.444 -8.101)"/> <path id="Path_358" data-name="Path 358" class="cls-2" d="M27.455 27.843a.666.666 0 0 1-.667-.667V12.1a.667.667 0 0 0-.667-.667H15.77a.667.667 0 1 1 0-1.333h10.352a2 2 0 0 1 2 2v15.076a.666.666 0 0 1-.667.667z" transform="translate(-9.997 -6.101)"/> <path id="Path_359" data-name="Path 359" class="cls-2" d="M33.455 21.843a.666.666 0 0 1-.667-.667V6.1a.667.667 0 0 0-.667-.667H21.77a.667.667 0 1 1 0-1.333h10.352a2 2 0 0 1 2 2v15.076a.666.666 0 0 1-.667.667z" transform="translate(-11.997 -4.101)"/> <path id="Path_360" data-name="Path 360" class="cls-2" d="M19.016 25.977H13.77a.667.667 0 0 1 0-1.333h5.246a.667.667 0 0 1 0 1.333z" transform="translate(-9.33 -10.949)"/> <path id="Path_361" data-name="Path 361" class="cls-2" d="M19.016 31.1H13.77a.667.667 0 0 1 0-1.333h5.246a.667.667 0 0 1 0 1.333z" transform="translate(-9.33 -12.657)"/> <path id="Path_362" data-name="Path 362" class="cls-2" d="M19.016 36.225H13.77a.667.667 0 1 1 0-1.333h5.246a.667.667 0 1 1 0 1.333z" transform="translate(-9.33 -14.365)"/> </g></svg>