<svg id="profile-picture" xmlns="http://www.w3.org/2000/svg" width="32" height="32" viewBox="0 0 32 32"> <defs> <clipPath id="clip-path"> <path id="Rectangle_2419" data-name="Rectangle 2419" class="cls-1" d="M0 0h32v32H0z"/> </clipPath> <style> .cls-1{fill:#fb1d1b}.cls-2{clip-path:url(#clip-path)} </style> </defs> <g id="Group_801" data-name="Group 801" class="cls-2"> <g id="Group_800" data-name="Group 800"> <g id="Group_799" data-name="Group 799" class="cls-2"> <path id="Path_2974" data-name="Path 2974" class="cls-1" d="M27.667 35.975a.666.666 0 0 1-.667-.667v-.717a3.337 3.337 0 0 0-3.333-3.333h-8a3.337 3.337 0 0 0-3.333 3.333v.717a.667.667 0 1 1-1.333 0v-.717a4.672 4.672 0 0 1 4.667-4.667h8a4.672 4.672 0 0 1 4.667 4.667v.717a.666.666 0 0 1-.667.667" transform="translate(-3.667 -9.975)"/> <path id="Path_2975" data-name="Path 2975" class="cls-1" d="M21.179 22.283a5.641 5.641 0 1 1 5.641-5.641 5.648 5.648 0 0 1-5.641 5.641m0-9.949a4.308 4.308 0 1 0 4.308 4.308 4.313 4.313 0 0 0-4.308-4.308" transform="translate(-5.179 -3.667)"/> <path id="Path_2976" data-name="Path 2976" class="cls-1" d="M28.333 30.333H7a2 2 0 0 1-2-2V7a2 2 0 0 1 2-2h21.333a2 2 0 0 1 2 2v21.333a2 2 0 0 1-2 2M7 6.333A.668.668 0 0 0 6.333 7v21.333A.667.667 0 0 0 7 29h21.333a.667.667 0 0 0 .667-.667V7a.667.667 0 0 0-.667-.667z" transform="translate(-1.667 -1.667)"/> </g> </g> </g></svg>