<svg id="creative-style" xmlns="http://www.w3.org/2000/svg" width="32" height="32" viewBox="0 0 32 32"> <defs> <clipPath id="clip-path"> <path id="Rectangle_2431" data-name="Rectangle 2431" class="cls-1" d="M0 0h32v32H0z"/> </clipPath> <style> .cls-1{fill:#fb1d1b}.cls-2{clip-path:url(#clip-path)} </style> </defs> <g id="Group_820" data-name="Group 820" class="cls-2"> <g id="Group_819" data-name="Group 819"> <g id="Group_818" data-name="Group 818" class="cls-2"> <path id="Path_2987" data-name="Path 2987" class="cls-1" d="M23.942 17.522a1 1 0 0 1-.466-.116l-1.845-.969-1.844.97a1 1 0 0 1-1.451-1.055l.352-2.054-1.488-1.455a1 1 0 0 1 .554-1.705l2.063-.3.923-1.869a1 1 0 0 1 1.793 0l.922 1.869 2.062.3a1 1 0 0 1 .554 1.705L24.574 14.3l.353 2.054a1 1 0 0 1-.985 1.17M18.611 12.357l1.134 1.106a1 1 0 0 1 .287.885l-.268 1.561 1.4-.737a1 1 0 0 1 .931 0l1.4.737-.267-1.561a1 1 0 0 1 .286-.884l1.135-1.107-1.567-.227a1 1 0 0 1-.754-.549l-.7-1.419-.7 1.42a1 1 0 0 1-.751.547zm5.934 1.763zm-1.017-3.129" transform="translate(-5.631 -2.804)"/> <path id="Path_2988" data-name="Path 2988" class="cls-1" d="M33.333 35.333H28a2 2 0 0 1-2-2V28a2 2 0 0 1 2-2h5.333a2 2 0 0 1 2 2v5.333a2 2 0 0 1-2 2m-5.333-8a.667.667 0 0 0-.667.667v5.333A.667.667 0 0 0 28 34h5.333a.667.667 0 0 0 .667-.667V28a.667.667 0 0 0-.667-.667z" transform="translate(-8.667 -8.667)"/> <path id="Path_2989" data-name="Path 2989" class="cls-1" d="M12.667 35.333a4.667 4.667 0 1 1 4.667-4.667 4.672 4.672 0 0 1-4.667 4.667m0-8A3.333 3.333 0 1 0 16 30.667a3.337 3.337 0 0 0-3.333-3.333" transform="translate(-2.667 -8.667)"/> </g> </g> </g></svg>