<svg id="special-section" xmlns="http://www.w3.org/2000/svg" width="32" height="32" viewBox="0 0 32 32"> <defs> <clipPath id="clip-path"> <path id="Rectangle_2443" data-name="Rectangle 2443" class="cls-1" d="M0 0h32v32H0z"/> </clipPath> <style> .cls-1{fill:#fb1d1b}.cls-2{clip-path:url(#clip-path)} </style> </defs> <g id="Group_839" data-name="Group 839" class="cls-2"> <g id="Group_838" data-name="Group 838"> <g id="Group_837" data-name="Group 837" class="cls-2"> <path id="Path_2995" data-name="Path 2995" class="cls-1" d="m29.47 16.339-2.3-4.6A1.327 1.327 0 0 0 25.976 11H10.8a1.327 1.327 0 0 0-1.193.737l-2.3 4.6a1.328 1.328 0 0 0 .115 1.381l9.889 13.6a1.334 1.334 0 0 0 2.156 0l9.889-13.6a1.331 1.331 0 0 0 .115-1.381m-9.494-4.006 2 4H14.8l2-4zm2.167 5.333-3.755 11.8-3.755-11.8zm-8.909 0L16.5 27.942 9.031 17.667zm10.309 0h4.2l-7.471 10.277zm4.434-1.333h-4.511l-2-4h4.509zm-17.176-4h4.508l-2 4H8.8z" transform="translate(-2.388 -3.667)"/> </g> </g> </g></svg>