<svg id="premium-templates" xmlns="http://www.w3.org/2000/svg" width="32" height="32" viewBox="0 0 32 32"> <defs> <clipPath id="clip-path"> <path id="Rectangle_2427" data-name="Rectangle 2427" class="cls-1" d="M0 0h32v32H0z"/> </clipPath> <style> .cls-1{fill:#fb1d1b}.cls-2{clip-path:url(#clip-path)} </style> </defs> <g id="Group_813" data-name="Group 813" class="cls-2"> <g id="Group_812" data-name="Group 812"> <g id="Group_811" data-name="Group 811" class="cls-2"> <path id="Path_2985" data-name="Path 2985" class="cls-1" d="M26.244 8H13.269a2 2 0 0 0-2 2v17.333a2 2 0 0 0 2 2h12.975a2 2 0 0 0 2-2V10a2 2 0 0 0-2-2M13.269 9.333h12.975a.667.667 0 0 1 .666.667v15.089a25.051 25.051 0 0 0-14.308 0V10a.667.667 0 0 1 .667-.667M26.244 28H13.269a.667.667 0 0 1-.667-.667v-.846a23.7 23.7 0 0 1 14.308 0v.846a.667.667 0 0 1-.667.667" transform="translate(-3.756 -2.667)"/> <path id="Path_2986" data-name="Path 2986" class="cls-1" d="m18.69 19.847-.334 1.947a1.066 1.066 0 0 0 1.044 1.247 1.069 1.069 0 0 0 .5-.124L21.651 22l1.75.919a1.064 1.064 0 0 0 1.545-1.122l-.334-1.948 1.415-1.38a1.064 1.064 0 0 0-.591-1.816l-1.956-.285-.875-1.771a1.064 1.064 0 0 0-1.91 0l-.875 1.772-1.956.285a1.065 1.065 0 0 0-.59 1.817zm1.462-2.181a1.067 1.067 0 0 0 .8-.583l.7-1.411.7 1.411a1.066 1.066 0 0 0 .8.583l1.557.226-1.126 1.1a1.062 1.062 0 0 0-.307.944l.267 1.551-1.393-.732a1.064 1.064 0 0 0-.992 0l-1.393.732.266-1.551a1.067 1.067 0 0 0-.307-.943l-1.127-1.1z" transform="translate(-5.651 -4.667)"/> </g> </g> </g></svg>