<svg id="themes" xmlns="http://www.w3.org/2000/svg" width="32" height="32" viewBox="0 0 32 32"> <defs> <style> .cls-2{fill:red} </style> </defs> <g id="theme" transform="translate(4.667 4)"> <g id="Group_51" data-name="Group 51"> <path id="Path_303" data-name="Path 303" class="cls-2" d="M32.5 26.464a3.594 3.594 0 0 0-2.537-1.264 3.257 3.257 0 0 0-2.6 1.133 3.447 3.447 0 0 0-.533 3.8A3.646 3.646 0 0 0 29.163 32a9.528 9.528 0 0 1 3.337 1.2 1.344 1.344 0 0 0 .733.2 1.256 1.256 0 0 0 .533-.133 1.4 1.4 0 0 0 .733-1 7.735 7.735 0 0 0-1.999-5.803zm.667 5.6a9.829 9.829 0 0 0-3.8-1.4 1.875 1.875 0 0 1-1.4-1.133A2.158 2.158 0 0 1 28.3 27.2a1.866 1.866 0 0 1 1.6-.667 1.9 1.9 0 0 1 1.533.733 6.362 6.362 0 0 1 1.73 4.798z" transform="translate(-11.272 -11.729)"/> <path id="Path_304" data-name="Path 304" class="cls-2" d="M21.183 15.533a.757.757 0 0 0-.2-.533L10.916 5.733a2.856 2.856 0 0 0-4 4.067l9.267 10.067a.72.72 0 0 0 .467.2h.067a.823.823 0 0 0 .533-.267l.067-.067a12.808 12.808 0 0 1 3.667-3.667.757.757 0 0 0 .199-.533zM7.916 6.8a1.42 1.42 0 0 1 1.067-.467 1.635 1.635 0 0 1 1.067.4l1.533 1.4L9.316 10.4l-1.4-1.533a1.411 1.411 0 0 1 0-2.067zm8.667 11.533-6.4-6.933 2.333-2.333 6.933 6.4a12.992 12.992 0 0 0-2.866 2.866z" transform="translate(-4.492 -4.999)"/> <path id="Path_305" data-name="Path 305" class="cls-2" d="M16.821 32.433a11.745 11.745 0 0 1-5.267-1.2 13.01 13.01 0 0 1-5.467-4.2 12.588 12.588 0 0 1-2.4-6.733 14.3 14.3 0 0 0 .267 3.733 14.235 14.235 0 0 0 1.333 3.533 14.46 14.46 0 0 0 5.333 5.467l.067.067c.067 0 .067.067.133.067a14.325 14.325 0 0 0 6 1.333 1.025 1.025 0 0 0 1-1 1.087 1.087 0 0 0-.999-1.067z" transform="translate(-3.664 -10.099)"/> </g> </g></svg>