<svg id="multiple-versions" xmlns="http://www.w3.org/2000/svg" xmlns:xlink="http://www.w3.org/1999/xlink" width="32" height="32" viewBox="0 0 32 32"> <defs> <style> .cls-1 { fill: #fb1d1b; } .cls-2 { clip-path: url(#clip-path); } .cls-3 { opacity: 0; } </style> <clipPath id="clip-path"> <rect id="Rectangle_2435" data-name="Rectangle 2435" class="cls-1" width="32" height="32"/> </clipPath> </defs> <g id="Group_826" data-name="Group 826" class="cls-2"> <g id="Group_825" data-name="Group 825"> <g id="Group_824" data-name="Group 824" class="cls-2"> <path id="Path_2990" data-name="Path 2990" class="cls-1" d="M28.244,12h-2V10a2,2,0,0,0-2-2H11.269a2,2,0,0,0-2,2v2h-2a2,2,0,0,0-2,2v9.333a2,2,0,0,0,2,2h2v2a2,2,0,0,0,2,2H24.244a2,2,0,0,0,2-2v-2h2a2,2,0,0,0,2-2V14a2,2,0,0,0-2-2M10.6,10a.667.667,0,0,1,.667-.667H24.244A.667.667,0,0,1,24.91,10v4.667H10.6V10ZM7.269,24a.667.667,0,0,1-.667-.667V14a.667.667,0,0,1,.667-.667h2V24ZM24.91,27.333a.667.667,0,0,1-.667.667H11.269a.667.667,0,0,1-.667-.667V16H24.91V27.333Zm4-4a.667.667,0,0,1-.667.667h-2V13.333h2A.667.667,0,0,1,28.91,14Z" transform="translate(-1.756 -2.667)"/> <path id="Path_2991" data-name="Path 2991" class="cls-1" d="M17.869,27.333h3.865a.667.667,0,0,0,0-1.333H17.869a.667.667,0,0,0,0,1.333" transform="translate(-5.734 -8.667)"/> <path id="Path_2992" data-name="Path 2992" class="cls-1" d="M25.6,30H17.869a.667.667,0,0,0,0,1.333H25.6A.667.667,0,1,0,25.6,30" transform="translate(-5.734 -10)"/> <path id="Path_2993" data-name="Path 2993" class="cls-1" d="M17.869,14.333h2.468a.667.667,0,0,0,0-1.333H17.869a.667.667,0,0,0,0,1.333" transform="translate(-5.734 -4.333)"/> <g id="Group_823" data-name="Group 823" class="cls-3"> <g id="Group_822" data-name="Group 822"> <g id="Group_821" data-name="Group 821" class="cls-2"> <rect id="Rectangle_2432" data-name="Rectangle 2432" class="cls-1" width="32" height="32"/> </g> </g> </g> </g> </g> </g></svg>