<svg id="video" xmlns="http://www.w3.org/2000/svg" xmlns:xlink="http://www.w3.org/1999/xlink" width="32" height="32" viewBox="0 0 32 32"> <defs> <style> .cls-1 { fill: #fb1d1b; } .cls-2 { clip-path: url(#clip-path); } .cls-3 { opacity: 0; } </style> <clipPath id="clip-path"> <rect id="Rectangle_2423" data-name="Rectangle 2423" class="cls-1" width="32" height="32"/> </clipPath> </defs> <g id="Group_807" data-name="Group 807" class="cls-2"> <g id="Group_806" data-name="Group 806"> <g id="Group_805" data-name="Group 805" class="cls-2"> <g id="Group_804" data-name="Group 804" class="cls-3"> <g id="Group_803" data-name="Group 803"> <g id="Group_802" data-name="Group 802" class="cls-2"> <rect id="Rectangle_2420" data-name="Rectangle 2420" class="cls-1" width="32" height="32"/> </g> </g> </g> <path id="Path_2977" data-name="Path 2977" class="cls-1" d="M19.938,26.181a2.008,2.008,0,0,1-2-2V19.463a2,2,0,0,1,3-1.732l4.083,2.357a2,2,0,0,1,0,3.464l-4.083,2.357a2,2,0,0,1-1,.271m0-7.387a.684.684,0,0,0-.337.091.656.656,0,0,0-.333.577v4.715a.667.667,0,0,0,1,.577L24.355,22.4a.667.667,0,0,0,0-1.155l-4.083-2.357a.647.647,0,0,0-.33-.092" transform="translate(-5.979 -5.82)"/> <path id="Path_2978" data-name="Path 2978" class="cls-1" d="M28.723,28.785H5.831a2,2,0,0,1-2-2V8.4a2,2,0,0,1,2-2H28.723a2,2,0,0,1,2,2V26.785a2,2,0,0,1-2,2M5.831,7.736a.668.668,0,0,0-.667.667V26.785a.667.667,0,0,0,.667.667H28.723a.667.667,0,0,0,.667-.667V8.4a.667.667,0,0,0-.667-.667Z" transform="translate(-1.277 -2.134)"/> <path id="Path_2979" data-name="Path 2979" class="cls-1" d="M12.667,11.736h-4a.667.667,0,1,1,0-1.333h4a.667.667,0,0,1,0,1.333" transform="translate(-2.667 -3.468)"/> <path id="Path_2980" data-name="Path 2980" class="cls-1" d="M24.667,11.736h-4a.667.667,0,0,1,0-1.333h4a.667.667,0,1,1,0,1.333" transform="translate(-6.667 -3.468)"/> <path id="Path_2981" data-name="Path 2981" class="cls-1" d="M36.667,11.736h-4a.667.667,0,1,1,0-1.333h4a.667.667,0,1,1,0,1.333" transform="translate(-10.667 -3.468)"/> <path id="Path_2982" data-name="Path 2982" class="cls-1" d="M12.667,35.309h-4a.667.667,0,1,1,0-1.333h4a.667.667,0,1,1,0,1.333" transform="translate(-2.667 -11.325)"/> <path id="Path_2983" data-name="Path 2983" class="cls-1" d="M24.667,35.309h-4a.667.667,0,1,1,0-1.333h4a.667.667,0,1,1,0,1.333" transform="translate(-6.667 -11.325)"/> <path id="Path_2984" data-name="Path 2984" class="cls-1" d="M36.667,35.309h-4a.667.667,0,1,1,0-1.333h4a.667.667,0,1,1,0,1.333" transform="translate(-10.667 -11.325)"/> </g> </g> </g></svg>