<?xml version="1.0" encoding="utf-8"?><svg version="1.1" xmlns="http://www.w3.org/2000/svg" xmlns:xlink="http://www.w3.org/1999/xlink" x="0px" y="0px" viewBox="0 0 350 150" style="enable-background:new 0 0 350 150;" xml:space="preserve"><style type="text/css">	.st0{display:none;}	.st1{display:inline;fill:#3BEF0F;}	.st2{fill:#303D46;}	.st3{fill:url(#SVGID_1_);}	.st4{fill:url(#SVGID_2_);}	.st5{fill:url(#SVGID_3_);}	.st6{fill:url(#SVGID_4_);}	.st7{fill:url(#SVGID_5_);}	.st8{fill:#30BCAD;}	.st9{fill:#FFFFFF;}	.st10{fill:#FCD14B;}	.st11{fill:none;}	.st12{fill:#D35E54;}	.st13{fill:#2DBCAD;}	.st14{fill:#2EADD7;}</style><g id="Layer_2" class="st0">	<rect class="st1" width="50" height="50"/>	<rect x="50" class="st1" width="50" height="50"/>	<rect x="100" class="st1" width="50" height="50"/>	<rect x="150" class="st1" width="50" height="50"/>	<rect y="50" class="st1" width="50" height="50"/>	<rect y="100" class="st1" width="50" height="50"/>	<rect x="50" y="100" class="st1" width="50" height="50"/>	<rect x="100" y="100" class="st1" width="50" height="50"/>	<rect x="150" y="100" class="st1" width="50" height="50"/>	<rect x="200" y="100" class="st1" width="50" height="50"/>	<rect x="250" y="100" class="st1" width="50" height="50"/>	<rect x="300" y="100" class="st1" width="50" height="50"/>	<rect x="50" y="50" class="st1" width="50" height="50"/>	<rect x="100" y="50" class="st1" width="50" height="50"/>	<rect x="150" y="50" class="st1" width="50" height="50"/>	<rect x="200" y="50" class="st1" width="50" height="50"/>	<rect x="250" y="50" class="st1" width="50" height="50"/>	<rect x="300" y="50" class="st1" width="50" height="50"/>	<rect x="200" class="st1" width="50" height="50"/>	<rect x="250" y="0" class="st1" width="50" height="50"/>	<rect x="300" class="st1" width="50" height="50"/></g><g id="Layer_1">	<g> <g> <g> <g> <path d="M191.745,11.873h-15.672l-2.104-6.356c-0.106-0.321-0.406-0.537-0.744-0.537h-14.969C156.46,4.98,155,6.44,155,8.235 v25.97c0,1.795,1.46,3.255,3.255,3.255h15.871l2.115,6.357c0.107,0.32,0.406,0.536,0.743,0.536h14.76 c1.795,0,3.255-1.46,3.255-3.255v-25.97C195,13.333,193.54,11.873,191.745,11.873z M158.255,35.894 c-0.931,0-1.689-0.758-1.689-1.689V8.235c0-0.931,0.758-1.689,1.689-1.689h14.403l5.523,16.681 c0,0.001,0.001,0.002,0.001,0.003l4.192,12.663H158.255z M181.363,26.798c0.063,0.087,0.846,1.162,2.059,2.661 c-0.342,0.45-0.704,0.896-1.087,1.331l-2.321-7.011h6.831c-0.484,1.018-1.323,2.642-2.476,4.354 c-1.059-1.322-1.724-2.236-1.738-2.255c-0.254-0.35-0.744-0.428-1.094-0.174C181.187,25.958,181.109,26.447,181.363,26.798z M175.777,37.46h5.872l-4.336,4.616L175.777,37.46z M193.433,41.098c0,0.931-0.758,1.689-1.689,1.689h-12.95l5.236-5.573l0,0 c0.023-0.024,0.045-0.05,0.064-0.077c0.147-0.204,0.188-0.466,0.109-0.705l-1.304-3.938c0.553-0.579,1.069-1.183,1.547-1.794 c1.039,1.232,2.269,2.613,3.576,3.921c0.153,0.153,0.353,0.229,0.554,0.229s0.401-0.076,0.554-0.229 c0.306-0.306,0.306-0.802,0-1.108c-1.364-1.364-2.657-2.832-3.726-4.112c1.66-2.383,2.737-4.649,3.167-5.621h1.676 c0.433,0,0.783-0.351,0.783-0.783c0-0.433-0.351-0.783-0.783-0.783h-2.204c-0.001,0-0.003,0-0.004,0h-2.961v-1.41 c0-0.433-0.351-0.783-0.783-0.783c-0.433,0-0.783,0.351-0.783,0.783v1.41h-4.016l-2.905-8.773h15.153 c0.931,0,1.689,0.758,1.689,1.689L193.433,41.098L193.433,41.098z"/> </g> </g> <g> <path d="M171.297,27.675l-1.14-3.217h-5.466l-1.14,3.217c-0.136,0.383-0.498,0.638-0.904,0.638l0,0 c-0.663,0-1.126-0.658-0.902-1.282l4.315-12.034c0.206-0.576,0.752-0.96,1.364-0.96l0,0c0.612,0,1.157,0.384,1.364,0.96 l4.315,12.034c0.224,0.625-0.239,1.282-0.902,1.282l0,0C171.795,28.313,171.433,28.058,171.297,27.675z M167.424,16.75 l-2.121,5.955h4.242L167.424,16.75z"/> </g> </g> <g> <g> <g> <path class="st2" d="M191.745,11.873h-15.672l-2.104-6.356c-0.106-0.321-0.406-0.537-0.744-0.537h-14.969 C156.46,4.98,155,6.44,155,8.235v25.97c0,1.795,1.46,3.255,3.255,3.255h15.871l2.115,6.357c0.107,0.32,0.406,0.536,0.743,0.536 h14.76c1.795,0,3.255-1.46,3.255-3.255v-25.97C195,13.333,193.54,11.873,191.745,11.873z M158.255,35.894 c-0.931,0-1.689-0.758-1.689-1.689V8.235c0-0.931,0.758-1.689,1.689-1.689h14.403l5.523,16.681 c0,0.001,0.001,0.002,0.001,0.003l4.192,12.663H158.255z M181.363,26.798c0.063,0.087,0.846,1.162,2.059,2.661 c-0.342,0.45-0.704,0.896-1.087,1.331l-2.321-7.011h6.831c-0.484,1.018-1.323,2.642-2.476,4.354 c-1.059-1.322-1.724-2.236-1.738-2.255c-0.254-0.35-0.744-0.428-1.094-0.174C181.187,25.958,181.109,26.447,181.363,26.798z M175.777,37.46h5.872l-4.336,4.616L175.777,37.46z M193.433,41.098c0,0.931-0.758,1.689-1.689,1.689h-12.95l5.236-5.573l0,0 c0.023-0.024,0.045-0.05,0.064-0.077c0.147-0.204,0.188-0.466,0.109-0.705l-1.304-3.938c0.553-0.579,1.069-1.183,1.547-1.794 c1.039,1.232,2.269,2.613,3.576,3.921c0.153,0.153,0.353,0.229,0.554,0.229s0.401-0.076,0.554-0.229 c0.306-0.306,0.306-0.802,0-1.108c-1.364-1.364-2.657-2.832-3.726-4.112c1.66-2.383,2.737-4.649,3.167-5.621h1.676 c0.433,0,0.783-0.351,0.783-0.783c0-0.433-0.351-0.783-0.783-0.783h-2.204c-0.001,0-0.003,0-0.004,0h-2.961v-1.41 c0-0.433-0.351-0.783-0.783-0.783c-0.433,0-0.783,0.351-0.783,0.783v1.41h-4.016l-2.905-8.773h15.153 c0.931,0,1.689,0.758,1.689,1.689L193.433,41.098L193.433,41.098z"/> </g> </g> <g> <path class="st2" d="M171.297,27.675l-1.14-3.217h-5.466l-1.14,3.217c-0.136,0.383-0.498,0.638-0.904,0.638l0,0 c-0.663,0-1.126-0.658-0.902-1.282l4.315-12.034c0.206-0.576,0.752-0.96,1.364-0.96l0,0c0.612,0,1.157,0.384,1.364,0.96 l4.315,12.034c0.224,0.625-0.239,1.282-0.902,1.282l0,0C171.795,28.313,171.433,28.058,171.297,27.675z M167.424,16.75 l-2.121,5.955h4.242L167.424,16.75z"/> </g> </g>	</g>	<path class="st2" d="M238.226,9.437c-6.291-0.328-10.067-2.789-11.758-4.227c-0.851-0.724-2.085-0.723-2.936,0 c-1.691,1.438-5.468,3.9-11.758,4.227c-1.216,0.063-2.169,1.058-2.169,2.265v11.373c0,7.176,3.07,13.704,8.423,17.91 c2.148,1.689,4.451,2.906,6.846,3.617l0.218,0.064l0.219-0.064c2.24-0.665,4.279-1.734,6.415-3.364 c5.428-4.143,8.669-10.799,8.669-17.804V11.702C240.395,10.495,239.442,9.5,238.226,9.437z M238.858,11.702v11.732 c0,6.529-3.015,12.728-8.065,16.583c-1.915,1.462-3.729,2.43-5.701,3.045c-2.155-0.67-4.156-1.745-6.115-3.285 c-4.979-3.913-7.835-10.001-7.835-16.702V11.702c0-0.389,0.313-0.71,0.712-0.731c6.742-0.351,10.835-3.027,12.674-4.591 c0.132-0.113,0.3-0.175,0.472-0.175s0.34,0.062,0.472,0.175c1.839,1.564,5.93,4.239,12.674,4.591 C238.545,10.992,238.858,11.313,238.858,11.702z"/>	<g> <g> <linearGradient id="SVGID_1_" gradientUnits="userSpaceOnUse" x1="55" y1="21.3333" x2="95" y2="21.3333"> <stop offset="0" style="stop-color:#2DBCAD"/> <stop offset="0.3093" style="stop-color:#2CB5BF"/> <stop offset="0.7075" style="stop-color:#2BAFD1"/> <stop offset="1" style="stop-color:#2BADD7"/> </linearGradient> <path class="st3" d="M88.983,18.796C88.632,12.796,83.686,8,77.723,8c-3.62,0-7.125,1.775-9.297,4.672 c-0.05-0.026-0.103-0.044-0.154-0.069c-0.131-0.063-0.263-0.123-0.398-0.177c-0.079-0.031-0.159-0.059-0.239-0.087 c-0.131-0.046-0.265-0.087-0.4-0.123c-0.08-0.021-0.159-0.043-0.24-0.062c-0.147-0.033-0.296-0.059-0.447-0.081 c-0.07-0.011-0.139-0.024-0.21-0.032C66.117,12.015,65.894,12,65.667,12c-3.308,0-6,2.691-6,6c0,0.086,0.005,0.17,0.011,0.254 C56.905,19.765,55,22.933,55,26.103c0,4.722,3.841,8.564,8.563,8.564H67c0.368,0,0.667-0.298,0.667-0.667 S67.368,33.333,67,33.333h-3.437c-3.987,0-7.23-3.243-7.23-7.231c0-2.769,1.803-5.644,4.288-6.835L61,19.087v-0.42 c0-0.082,0.005-0.166,0.01-0.25l0.006-0.115l-0.008-0.135C61.004,18.111,61,18.056,61,18c0-2.573,2.093-4.667,4.667-4.667 c0.206,0,0.409,0.018,0.611,0.045c0.052,0.007,0.104,0.015,0.156,0.024c0.178,0.029,0.353,0.068,0.526,0.117 c0.023,0.007,0.047,0.011,0.071,0.018c0.19,0.058,0.375,0.132,0.557,0.214c0.047,0.021,0.093,0.044,0.139,0.067 c0.161,0.079,0.318,0.167,0.47,0.265c1.284,0.833,2.137,2.276,2.137,3.917c0,0.369,0.299,0.667,0.667,0.667 c0.368,0,0.667-0.298,0.667-0.667c0-1.836-0.831-3.479-2.133-4.581c1.911-2.5,5.059-4.086,8.189-4.086 c5.163,0,9.452,4.09,9.899,9.258c-0.681-0.048-1.702-0.073-2.722,0.083c-0.364,0.055-0.614,0.395-0.559,0.759 c0.05,0.33,0.334,0.567,0.658,0.567c0.033,0,0.067-0.003,0.101-0.008c1.483-0.224,3.029-0.014,3.123-0.001 c3.104,0.591,5.444,3.45,5.444,6.657c0,3.686-2.999,6.685-6.685,6.685h-2.648c-0.368,0-0.667,0.298-0.667,0.667 s0.299,0.667,0.667,0.667h2.648c4.421,0,8.019-3.597,8.019-8.019C95,22.989,92.449,19.707,88.983,18.796z"/> <linearGradient id="SVGID_2_" gradientUnits="userSpaceOnUse" x1="68.3333" y1="33.3333" x2="83" y2="33.3333"> <stop offset="0" style="stop-color:#2DBCAD"/> <stop offset="0.3093" style="stop-color:#2CB5BF"/> <stop offset="0.7075" style="stop-color:#2BAFD1"/> <stop offset="1" style="stop-color:#2BADD7"/> </linearGradient> <path class="st4" d="M82.333,33.333c-0.368,0-0.667,0.298-0.667,0.667c0,3.309-2.692,6-6,6s-6-2.691-6-6s2.692-6,6-6 c2,0,3.785,1.004,4.874,2.667h-4.207c-0.368,0-0.667,0.298-0.667,0.667S75.965,32,76.333,32h5.333 c0.001,0,0.002-0.001,0.003-0.001c0.047,0,0.093-0.018,0.14-0.028c0.04-0.009,0.083-0.01,0.121-0.026 c0.001-0.001,0.003,0,0.003-0.001c0.023-0.01,0.037-0.029,0.058-0.041c0.054-0.031,0.108-0.062,0.151-0.106 c0.029-0.031,0.047-0.069,0.069-0.103c0.024-0.037,0.053-0.069,0.07-0.111c0.023-0.056,0.029-0.117,0.036-0.177 c0.003-0.026,0.015-0.048,0.015-0.074v-0.007v-0.001V26c0-0.369-0.299-0.667-0.667-0.667C81.299,25.333,81,25.631,81,26v3.067 c-1.343-1.515-3.243-2.4-5.333-2.4c-4.043,0-7.333,3.29-7.333,7.333s3.29,7.333,7.333,7.333S83,38.043,83,34 C83,33.631,82.701,33.333,82.333,33.333z"/> </g> <g> <path class="st2" d="M88.983,18.796C88.632,12.796,83.686,8,77.723,8c-3.62,0-7.125,1.775-9.297,4.672 c-0.05-0.026-0.103-0.044-0.154-0.069c-0.131-0.063-0.263-0.123-0.398-0.177c-0.079-0.031-0.159-0.059-0.239-0.087 c-0.131-0.046-0.265-0.087-0.4-0.123c-0.08-0.021-0.159-0.043-0.24-0.062c-0.147-0.033-0.296-0.059-0.447-0.081 c-0.07-0.011-0.139-0.024-0.21-0.032C66.117,12.015,65.894,12,65.667,12c-3.308,0-6,2.691-6,6c0,0.086,0.005,0.17,0.011,0.254 C56.905,19.765,55,22.933,55,26.103c0,4.722,3.841,8.564,8.563,8.564H67c0.368,0,0.667-0.298,0.667-0.667 S67.368,33.333,67,33.333h-3.437c-3.987,0-7.23-3.243-7.23-7.231c0-2.769,1.803-5.644,4.288-6.835L61,19.087v-0.42 c0-0.082,0.005-0.166,0.01-0.25l0.006-0.115l-0.008-0.135C61.004,18.111,61,18.056,61,18c0-2.573,2.093-4.667,4.667-4.667 c0.206,0,0.409,0.018,0.611,0.045c0.052,0.007,0.104,0.015,0.156,0.024c0.178,0.029,0.353,0.068,0.526,0.117 c0.023,0.007,0.047,0.011,0.071,0.018c0.19,0.058,0.375,0.132,0.557,0.214c0.047,0.021,0.093,0.044,0.139,0.067 c0.161,0.079,0.318,0.167,0.47,0.265c1.284,0.833,2.137,2.276,2.137,3.917c0,0.369,0.299,0.667,0.667,0.667 c0.368,0,0.667-0.298,0.667-0.667c0-1.836-0.831-3.479-2.133-4.581c1.911-2.5,5.059-4.086,8.189-4.086 c5.163,0,9.452,4.09,9.899,9.258c-0.681-0.048-1.702-0.073-2.722,0.083c-0.364,0.055-0.614,0.395-0.559,0.759 c0.05,0.33,0.334,0.567,0.658,0.567c0.033,0,0.067-0.003,0.101-0.008c1.483-0.224,3.029-0.014,3.123-0.001 c3.104,0.591,5.444,3.45,5.444,6.657c0,3.686-2.999,6.685-6.685,6.685h-2.648c-0.368,0-0.667,0.298-0.667,0.667 s0.299,0.667,0.667,0.667h2.648c4.421,0,8.019-3.597,8.019-8.019C95,22.989,92.449,19.707,88.983,18.796z"/> <path class="st2" d="M82.333,33.333c-0.368,0-0.667,0.298-0.667,0.667c0,3.309-2.692,6-6,6s-6-2.691-6-6s2.692-6,6-6 c2,0,3.785,1.004,4.874,2.667h-4.207c-0.368,0-0.667,0.298-0.667,0.667S75.965,32,76.333,32h5.333 c0.001,0,0.002-0.001,0.003-0.001c0.047,0,0.093-0.018,0.14-0.028c0.04-0.009,0.083-0.01,0.121-0.026 c0.001-0.001,0.003,0,0.003-0.001c0.023-0.01,0.037-0.029,0.058-0.041c0.054-0.031,0.108-0.062,0.151-0.106 c0.029-0.031,0.047-0.069,0.069-0.103c0.024-0.037,0.053-0.069,0.07-0.111c0.023-0.056,0.029-0.117,0.036-0.177 c0.003-0.026,0.015-0.048,0.015-0.074v-0.007v-0.001V26c0-0.369-0.299-0.667-0.667-0.667C81.299,25.333,81,25.631,81,26v3.067 c-1.343-1.515-3.243-2.4-5.333-2.4c-4.043,0-7.333,3.29-7.333,7.333s3.29,7.333,7.333,7.333S83,38.043,83,34 C83,33.631,82.701,33.333,82.333,33.333z"/> </g>	</g>	<g> <circle class="st2" cx="37.77" cy="23.574" r="0.728"/> <circle class="st2" cx="11.566" cy="23.574" r="0.728"/> <circle class="st2" cx="13.75" cy="25.758" r="0.728"/> <circle class="st2" cx="18.117" cy="25.758" r="0.728"/> <circle class="st2" cx="15.934" cy="27.942" r="0.728"/> <circle class="st2" cx="20.301" cy="27.942" r="0.728"/> <circle class="st2" cx="22.484" cy="30.125" r="0.728"/> <circle class="st2" cx="26.852" cy="30.125" r="0.728"/> <circle class="st2" cx="29.035" cy="27.942" r="0.728"/> <circle class="st2" cx="24.668" cy="32.309" r="0.728"/> <circle class="st2" cx="31.219" cy="25.758" r="0.728"/> <circle class="st2" cx="35.586" cy="25.758" r="0.728"/> <circle class="st2" cx="33.403" cy="27.942" r="0.728"/> <path class="st2" d="M38.162,28.539l6.838-3.907l-7.028-3.991l7.028-4.016L25,5.268L5,16.625l7.028,4.016L5,24.632l7.028,4.016 L5,32.639l20,11.426l20-11.426l-7.028-3.991l0.052-0.03C38.074,28.599,38.116,28.568,38.162,28.539z M25,6.942l17.059,9.687 L36.5,19.806l0,0l-11.499,6.57L7.941,16.629L25,6.942z M13.101,21.706c0.118,0.242,0.362,0.413,0.649,0.413 c0.197,0,0.373-0.079,0.504-0.206l1.646,0.94c-0.386,0.018-0.694,0.331-0.694,0.721c0,0.402,0.326,0.728,0.728,0.728 s0.728-0.326,0.728-0.728c0-0.126-0.04-0.238-0.096-0.341l7.519,4.296C24,27.648,23.94,27.785,23.94,27.942 c0,0.402,0.326,0.728,0.728,0.728s0.728-0.326,0.728-0.728c0-0.037-0.015-0.068-0.021-0.104l7.317-4.18 c0.043,0.361,0.338,0.644,0.711,0.644c0.402,0,0.728-0.326,0.728-0.728c0-0.237-0.12-0.437-0.296-0.57l1.603-0.916 c0.049,0.011,0.096,0.03,0.148,0.03c0.323,0,0.587-0.214,0.683-0.505l0.233-0.133l5.557,3.155l-1.443,0.825 c-0.114-0.253-0.366-0.43-0.661-0.43c-0.402,0-0.728,0.326-0.728,0.728c0,0.157,0.06,0.295,0.145,0.413L36.5,27.811l0,0 l-4.65,2.657c0.057-0.103,0.098-0.217,0.098-0.344c0-0.402-0.326-0.728-0.728-0.728c-0.402,0-0.728,0.326-0.728,0.728 c0,0.391,0.31,0.704,0.697,0.721l-1.647,0.941c-0.131-0.127-0.308-0.207-0.505-0.207c-0.402,0-0.728,0.326-0.728,0.728 c0,0.058,0.02,0.11,0.033,0.165l-3.341,1.909l-4.016-2.294c-0.095-0.292-0.36-0.507-0.683-0.507c-0.053,0-0.1,0.02-0.15,0.031 l-1.602-0.915c0.175-0.133,0.296-0.333,0.296-0.571c0-0.402-0.326-0.728-0.728-0.728c-0.373,0-0.669,0.285-0.711,0.646 l-7.318-4.18c0.005-0.036,0.021-0.068,0.021-0.105c0-0.402-0.326-0.728-0.728-0.728c-0.174,0-0.327,0.069-0.452,0.171 l-0.989-0.565L13.101,21.706z M42.058,32.642l-17.059,9.746L7.941,32.642l5.556-3.155L25,36.058l11.502-6.571L42.058,32.642z"/>	</g>	<g> <g> <g> <linearGradient id="SVGID_3_" gradientUnits="userSpaceOnUse" x1="109.569" y1="30.1282" x2="140.431" y2="30.1282"> <stop offset="0" style="stop-color:#2DBCAD"/> <stop offset="0.3093" style="stop-color:#2CB5BF"/> <stop offset="0.7075" style="stop-color:#2BAFD1"/> <stop offset="1" style="stop-color:#2BADD7"/> </linearGradient> <path class="st5" d="M134.081,39.272l0.204-0.18c0.033-0.024,0.057-0.049,0.082-0.082c0.106-0.122,2.489-2.873,3.395-4.987 h0.433c1.232,0,2.236-1.004,2.236-2.236v-3.534c0-1.232-1.004-2.236-2.236-2.236h-0.482c-0.743-1.934-2.008-3.681-3.689-5.101 c-0.245-0.873-0.065-1.804,0.547-2.775c0.343-0.547,0.343-1.232-0.008-1.779c-0.351-0.547-0.963-0.841-1.608-0.759 c-2.359,0.294-3.771,1.363-4.595,2.359c-0.775-0.212-1.575-0.375-2.383-0.465c-0.441-0.049-0.849,0.261-0.898,0.71 c-0.049,0.441,0.261,0.849,0.71,0.898c0.898,0.106,1.787,0.302,2.636,0.571c0.343,0.106,0.71-0.024,0.914-0.318 c0.555-0.824,1.673-1.869,3.811-2.138c0.016,0,0.033,0,0.049,0.024c0.016,0.024,0.008,0.041,0,0.049 c-0.849,1.355-1.102,2.767-0.726,4.089c0.008,0.237,0.114,0.457,0.302,0.604c1.722,1.387,2.971,3.15,3.607,5.101 c0.106,0.335,0.424,0.555,0.767,0.555l0,0h1.045c0.343,0,0.62,0.277,0.62,0.62v3.534c0,0.343-0.277,0.62-0.62,0.62h-0.988 c-0.351,0-0.669,0.229-0.775,0.571c-0.457,1.494-2.465,4.024-3.248,4.93l-0.18,0.155c-1.681,1.518-1.853,3.314-1.861,3.852 v1.134h-4.66v-1.094c0-0.229-0.098-0.449-0.269-0.604c-0.171-0.155-0.4-0.229-0.628-0.204c-1.192,0.122-2.391,0.106-3.55-0.049 c-0.229-0.033-0.465,0.041-0.637,0.196c-0.18,0.155-0.277,0.375-0.277,0.612v1.134h-4.66v-0.318c0-0.008,0-0.024,0-0.033 c-0.041-0.857-0.31-3.028-2.008-4.775c-0.8-0.824-1.518-1.918-2.138-3.24c-0.008-0.008-0.008-0.016-0.016-0.033 c-0.367-0.702-0.645-1.445-0.832-2.228l-0.008-0.033c0-0.008-0.008-0.016-0.008-0.024c-0.294-0.979-0.261-2.212-0.261-2.22 c0-0.008,0-0.016,0-0.024c0-0.539,0.049-1.085,0.131-1.616c0.073-0.441-0.22-0.857-0.661-0.93 c-0.441-0.073-0.857,0.22-0.93,0.661c-0.106,0.612-0.155,1.241-0.155,1.869c-0.008,0.163-0.024,1.534,0.326,2.718l0,0 c0.212,0.873,0.539,1.73,0.955,2.546c0.686,1.485,1.51,2.718,2.432,3.673c1.298,1.339,1.518,3.02,1.551,3.705v0.335 c0,0.033,0,0.057,0.008,0.106c0.057,0.824,0.751,1.477,1.575,1.477h4.726c0.873,0,1.583-0.71,1.583-1.583v-0.269 c0.71,0.057,1.412,0.065,2.13,0.033v0.237c0,0.873,0.71,1.583,1.583,1.583h4.726c0.873,0,1.583-0.71,1.583-1.583v-1.151 C132.767,41.68,132.857,40.374,134.081,39.272z"/> <linearGradient id="SVGID_4_" gradientUnits="userSpaceOnUse" x1="109.6373" y1="20.288" x2="122.9407" y2="20.288"> <stop offset="0" style="stop-color:#2DBCAD"/> <stop offset="0.3093" style="stop-color:#2CB5BF"/> <stop offset="0.7075" style="stop-color:#2BAFD1"/> <stop offset="1" style="stop-color:#2BADD7"/> </linearGradient> <path class="st6" d="M109.637,20.288c0,3.665,2.979,6.652,6.652,6.652c3.665,0,6.652-2.979,6.652-6.652 c0-3.665-2.979-6.652-6.652-6.652C112.624,13.636,109.637,16.615,109.637,20.288z M121.325,20.288 c0,2.775-2.261,5.036-5.036,5.036c-2.775,0-5.036-2.261-5.036-5.036s2.261-5.036,5.036-5.036 C119.064,15.252,121.325,17.513,121.325,20.288z"/> <linearGradient id="SVGID_5_" gradientUnits="userSpaceOnUse" x1="119.2517" y1="9.3025" x2="128.5232" y2="9.3025"> <stop offset="0" style="stop-color:#2DBCAD"/> <stop offset="0.3093" style="stop-color:#2CB5BF"/> <stop offset="0.7075" style="stop-color:#2BAFD1"/> <stop offset="1" style="stop-color:#2BADD7"/> </linearGradient> <path class="st7" d="M128.523,9.302c0-2.555-2.081-4.636-4.636-4.636s-4.636,2.081-4.636,4.636s2.081,4.636,4.636,4.636 S128.523,11.857,128.523,9.302z M120.859,9.302c0-1.665,1.355-3.02,3.02-3.02c1.665,0,3.02,1.355,3.02,3.02 s-1.355,3.02-3.02,3.02C122.214,12.322,120.859,10.967,120.859,9.302z"/> </g> </g> <g> <g> <path class="st2" d="M134.081,39.272l0.204-0.18c0.033-0.024,0.057-0.049,0.082-0.082c0.106-0.122,2.489-2.873,3.395-4.987 h0.433c1.232,0,2.236-1.004,2.236-2.236v-3.534c0-1.232-1.004-2.236-2.236-2.236h-0.482c-0.743-1.934-2.008-3.681-3.689-5.101 c-0.245-0.873-0.065-1.804,0.547-2.775c0.343-0.547,0.343-1.232-0.008-1.779c-0.351-0.547-0.963-0.841-1.608-0.759 c-2.359,0.294-3.771,1.363-4.595,2.359c-0.775-0.212-1.575-0.375-2.383-0.465c-0.441-0.049-0.849,0.261-0.898,0.71 c-0.049,0.441,0.261,0.849,0.71,0.898c0.898,0.106,1.787,0.302,2.636,0.571c0.343,0.106,0.71-0.024,0.914-0.318 c0.555-0.824,1.673-1.869,3.811-2.138c0.016,0,0.033,0,0.049,0.024c0.016,0.024,0.008,0.041,0,0.049 c-0.849,1.355-1.102,2.767-0.726,4.089c0.008,0.237,0.114,0.457,0.302,0.604c1.722,1.387,2.971,3.15,3.607,5.101 c0.106,0.335,0.424,0.555,0.767,0.555l0,0h1.045c0.343,0,0.62,0.277,0.62,0.62v3.534c0,0.343-0.277,0.62-0.62,0.62h-0.988 c-0.351,0-0.669,0.229-0.775,0.571c-0.457,1.494-2.465,4.024-3.248,4.93l-0.18,0.155c-1.681,1.518-1.853,3.314-1.861,3.852 v1.134h-4.66v-1.094c0-0.229-0.098-0.449-0.269-0.604c-0.171-0.155-0.4-0.229-0.628-0.204c-1.192,0.122-2.391,0.106-3.55-0.049 c-0.229-0.033-0.465,0.041-0.637,0.196c-0.18,0.155-0.277,0.375-0.277,0.612v1.134h-4.66v-0.318c0-0.008,0-0.024,0-0.033 c-0.041-0.857-0.31-3.028-2.008-4.775c-0.8-0.824-1.518-1.918-2.138-3.24c-0.008-0.008-0.008-0.016-0.016-0.033 c-0.367-0.702-0.645-1.445-0.832-2.228l-0.008-0.033c0-0.008-0.008-0.016-0.008-0.024c-0.294-0.979-0.261-2.212-0.261-2.22 c0-0.008,0-0.016,0-0.024c0-0.539,0.049-1.085,0.131-1.616c0.073-0.441-0.22-0.857-0.661-0.93 c-0.441-0.073-0.857,0.22-0.93,0.661c-0.106,0.612-0.155,1.241-0.155,1.869c-0.008,0.163-0.024,1.534,0.326,2.718l0,0 c0.212,0.873,0.539,1.73,0.955,2.546c0.686,1.485,1.51,2.718,2.432,3.673c1.298,1.339,1.518,3.02,1.551,3.705v0.335 c0,0.033,0,0.057,0.008,0.106c0.057,0.824,0.751,1.477,1.575,1.477h4.726c0.873,0,1.583-0.71,1.583-1.583v-0.269 c0.71,0.057,1.412,0.065,2.13,0.033v0.237c0,0.873,0.71,1.583,1.583,1.583h4.726c0.873,0,1.583-0.71,1.583-1.583v-1.151 C132.767,41.68,132.857,40.374,134.081,39.272z"/> <path class="st2" d="M109.637,20.288c0,3.665,2.979,6.652,6.652,6.652c3.665,0,6.652-2.979,6.652-6.652 c0-3.665-2.979-6.652-6.652-6.652C112.624,13.636,109.637,16.615,109.637,20.288z M121.325,20.288 c0,2.775-2.261,5.036-5.036,5.036c-2.775,0-5.036-2.261-5.036-5.036s2.261-5.036,5.036-5.036 C119.064,15.252,121.325,17.513,121.325,20.288z"/> <path class="st2" d="M128.523,9.302c0-2.555-2.081-4.636-4.636-4.636s-4.636,2.081-4.636,4.636s2.081,4.636,4.636,4.636 S128.523,11.857,128.523,9.302z M120.859,9.302c0-1.665,1.355-3.02,3.02-3.02c1.665,0,3.02,1.355,3.02,3.02 s-1.355,3.02-3.02,3.02C122.214,12.322,120.859,10.967,120.859,9.302z"/> </g> </g>	</g>	<g> <g> <g> <path class="st2" d="M317.701,43.334c-7.597,0-12.701-7.502-12.701-18.667s5.104-18.667,12.701-18.667 s12.701,7.502,12.701,18.667S325.298,43.334,317.701,43.334z M317.701,7.536c-6.678,0-11.164,6.884-11.164,17.131 s4.486,17.131,11.164,17.131s11.164-6.884,11.164-17.131S324.379,7.536,317.701,7.536z M317.701,37.617 c-3.582,0-5.989-5.204-5.989-12.95s2.407-12.949,5.989-12.949s5.988,5.204,5.988,12.949S321.283,37.617,317.701,37.617z M317.701,13.254c-2.58,0-4.452,4.8-4.452,11.412c0,6.613,1.873,11.413,4.452,11.413s4.452-4.8,4.452-11.413 C322.152,18.054,320.28,13.254,317.701,13.254z"/> </g> </g> <g> <g> <path class="st2" d="M340.843,31.704h-3.133c-1.49,0-2.702-1.212-2.702-2.702c0-1.49,1.212-2.702,2.702-2.702h5.515 c0.401,0,0.728-0.326,0.728-0.728c0-0.401-0.326-0.728-0.728-0.728h-2.587c-0.353,0-0.64-0.286-0.64-0.64v-1.903 c0-0.401-0.326-0.728-0.728-0.728c-0.401,0-0.728,0.326-0.728,0.728v1.903c0,0.353-0.286,0.64-0.64,0.64h-0.194 c-2.292,0-4.157,1.865-4.157,4.157c0,2.293,1.865,4.157,4.157,4.157h3.133c1.49,0,2.702,1.212,2.702,2.702 s-1.212,2.702-2.702,2.702h-5.617c-0.401,0-0.728,0.326-0.728,0.728s0.326,0.728,0.728,0.728h2.689 c0.353,0,0.64,0.286,0.64,0.64v1.949c0,0.401,0.327,0.728,0.728,0.728c0.401,0,0.728-0.326,0.728-0.728v-1.949 c0-0.353,0.286-0.64,0.64-0.64h0.228h0.034c2.251-0.029,4.089-1.894,4.089-4.157C345,33.569,343.135,31.704,340.843,31.704z"/> </g> </g>	</g>	<g> <g> <path class="st8" d="M132.439,68.234c-0.548,0-0.984,0.436-0.984,0.984v19.476c0,0.548,0.436,0.984,0.984,0.984h6.741 c0.548,0,0.984-0.436,0.984-0.984V69.218c0-0.548-0.436-0.984-0.984-0.984H132.439L132.439,68.234z M138.196,87.71h-4.772V70.215 h4.772V87.71z"/> <path class="st8" d="M110.82,73.405c-0.548,0-0.984,0.436-0.984,0.984v14.305c0,0.548,0.436,0.984,0.984,0.984h6.741 c0.548,0,0.984-0.436,0.984-0.984V74.389c0-0.548-0.436-0.984-0.984-0.984H110.82L110.82,73.405z M111.804,87.71v-1.533 l1.533,1.533H111.804z M114.894,87.71l-3.09-3.09v-1.558l4.66,4.66h-1.57V87.71z M116.577,86.265l-4.772-4.772v-1.558 l4.772,4.772V86.265z M116.577,83.149l-4.772-4.772v-1.558l4.772,4.772V83.149z M116.577,80.034l-4.648-4.648h1.558l3.09,3.09 V80.034z M116.577,76.906l-1.533-1.533h1.533V76.906z"/> <path class="st8" d="M121.623,60.321c-0.548,0-0.984,0.436-0.984,0.984v27.389c0,0.548,0.436,0.984,0.984,0.984h6.741 c0.548,0,0.984-0.436,0.984-0.984V61.306c0-0.548-0.436-0.984-0.984-0.984H121.623z"/> </g>	</g>	<path class="st8" d="M85.194,69.93h-3.43v-3.059c0-1.041-0.847-1.888-1.888-1.888h-2.935v-2.811c0-1.041-0.847-1.888-1.888-1.888 H64.806c-1.041,0-1.888,0.847-1.888,1.888v16.01c0,1.041,0.847,1.888,1.888,1.888h2.935v2.811c0,1.041,0.847,1.888,1.888,1.888 h3.43v3.059c0,1.041,0.847,1.888,1.888,1.888h10.249c1.041,0,1.888-0.847,1.888-1.888v-16.01 C87.082,70.777,86.235,69.93,85.194,69.93z M67.741,66.871v11.22h-2.844V62.263h10.067v2.72h-5.335 C68.587,64.984,67.741,65.83,67.741,66.871z M73.058,71.818V82.79h-3.339V66.962h10.067v2.968h-4.841 C73.905,69.93,73.058,70.777,73.058,71.818z M85.104,87.737H75.036V71.909h10.067V87.737z"/>	<path class="st8" d="M189.638,68.825l-8.463-8.463c-0.607-0.607-1.595-0.607-2.201,0l-2.212,2.212 c-0.607,0.607-0.607,1.595,0,2.201l0.37,0.37l-15.629,15.629c-2.129,2.129-2.129,5.594,0,7.723c2.129,2.129,5.593,2.129,7.723,0 l15.629-15.629l0.37,0.37c0.607,0.607,1.595,0.607,2.201,0l2.212-2.212C190.245,70.419,190.245,69.432,189.638,68.825z M181.545,66.616l1.471-1.471l1.839,1.839l-1.471,1.471L181.545,66.616z M180.074,62.203l1.471,1.471l-1.471,1.471l-1.471-1.471 L180.074,62.203z M162.974,87.026c-1.318-1.318-1.318-3.463,0-4.781l6.803-6.803l1.471,1.471l-2.206,2.206l3.31,3.31l-4.597,4.597 C166.437,88.344,164.292,88.344,162.974,87.026z M171.984,79.119l2.942-2.942l1.471,1.471l-2.942,2.942L171.984,79.119z M178.236,76.545l-3.31-3.31l-2.206,2.206l-1.471-1.471l7.355-7.355l4.781,4.781L178.236,76.545z M186.326,71.397l-1.471-1.471 l1.471-1.471l1.471,1.471L186.326,71.397z"/>	<g> <path class="st8" d="M23.668,90.635H12.126c-0.748,0-1.357-0.608-1.357-1.357v-5.564c0-0.748,0.608-1.357,1.357-1.357h11.542 c0.748,0,1.357,0.608,1.357,1.357v5.564C25.025,90.026,24.416,90.635,23.668,90.635z M12.609,88.796h10.577v-4.599H12.609V88.796z "/> <path class="st8" d="M23.668,80.978H12.126c-0.748,0-1.357-0.608-1.357-1.357V66.7c0-0.748,0.608-1.357,1.357-1.357h11.542 c0.748,0,1.357,0.608,1.357,1.357v12.922C25.025,80.37,24.416,80.978,23.668,80.978z M12.609,79.139h10.577V67.183H12.609V79.139z "/> <path class="st8" d="M39.303,90.635H27.761c-0.748,0-1.357-0.608-1.357-1.357V78.656c0-0.748,0.608-1.357,1.357-1.357h11.542 c0.748,0,1.357,0.608,1.357,1.357v10.622C40.66,90.026,40.051,90.635,39.303,90.635z M28.244,88.796H38.82v-9.657H28.244V88.796z" /> <path class="st8" d="M39.303,75.92H27.761c-0.748,0-1.357-0.608-1.357-1.357V66.7c0-0.748,0.608-1.357,1.357-1.357h11.542 c0.748,0,1.357,0.608,1.357,1.357v7.863C40.66,75.311,40.051,75.92,39.303,75.92z M28.244,74.08H38.82v-6.898H28.244V74.08z"/> <path class="st8" d="M39.303,59.365H12.126c-0.748,0-1.357,0.608-1.357,1.357v1.885c0,0.748,0.608,1.357,1.357,1.357h27.177 c0.748,0,1.357-0.608,1.357-1.357v-1.885C40.66,59.974,40.051,59.365,39.303,59.365z"/>	</g>	<g> <path class="st9" d="M220.287,90.102l3.017-13.62h-6.214c-0.424,0-0.818-0.211-1.054-0.564c-0.235-0.353-0.279-0.798-0.115-1.19 l5.491-13.178c0.197-0.473,0.656-0.779,1.169-0.779h7.713c0.432,0,0.83,0.217,1.065,0.581c0.234,0.363,0.267,0.816,0.089,1.209 l-2.907,6.407h6.264c0.528,0,0.997,0.297,1.223,0.775c0.226,0.478,0.157,1.028-0.178,1.436L220.287,90.102z M222.462,61.988 l-5.491,13.178c-0.022,0.052-0.006,0.094,0.012,0.12c0.017,0.026,0.05,0.057,0.107,0.057h7.633l-2.296,10.364l12.542-15.252 c0.075-0.091,0.05-0.181,0.028-0.227c-0.022-0.046-0.075-0.122-0.193-0.122h-8.031l3.637-8.016 c0.024-0.053,0.008-0.096-0.009-0.122c-0.017-0.027-0.05-0.059-0.108-0.059h-7.713C222.529,61.909,222.482,61.94,222.462,61.988 L222.462,61.988z"/> <path class="st10" d="M215.361,65.552c-0.146,0-0.291-0.056-0.403-0.167l-4.516-4.516c-0.222-0.222-0.222-0.583,0-0.805 c0.222-0.222,0.583-0.222,0.805,0l4.516,4.516c0.222,0.222,0.222,0.583,0,0.805C215.652,65.497,215.506,65.552,215.361,65.552z"/> <path class="st10" d="M211.945,74.964h-6.376c-0.314,0-0.569-0.255-0.569-0.569c0-0.314,0.255-0.569,0.569-0.569h6.376 c0.314,0,0.569,0.255,0.569,0.569C212.514,74.709,212.259,74.964,211.945,74.964z"/> <path class="st10" d="M211.679,88.512c-0.146,0-0.291-0.056-0.403-0.167c-0.222-0.222-0.222-0.583,0-0.805l4.516-4.516 c0.222-0.222,0.583-0.222,0.805,0c0.222,0.222,0.222,0.583,0,0.805l-4.516,4.516C211.971,88.457,211.825,88.512,211.679,88.512z" /> <path class="st10" d="M238.321,88.512c-0.146,0-0.291-0.056-0.403-0.167l-4.516-4.516c-0.222-0.222-0.222-0.583,0-0.805 c0.222-0.222,0.583-0.222,0.805,0l4.516,4.516c0.222,0.222,0.222,0.583,0,0.805C238.612,88.457,238.466,88.512,238.321,88.512z"/> <path class="st10" d="M244.431,74.964h-6.376c-0.314,0-0.569-0.255-0.569-0.569c0-0.314,0.255-0.569,0.569-0.569h6.376 c0.314,0,0.569,0.255,0.569,0.569C245,74.709,244.745,74.964,244.431,74.964z"/> <path class="st10" d="M234.639,65.552c-0.146,0-0.291-0.056-0.403-0.167c-0.222-0.222-0.222-0.583,0-0.805l4.516-4.516 c0.222-0.222,0.583-0.222,0.805,0c0.222,0.222,0.222,0.583,0,0.805l-4.516,4.516C234.931,65.497,234.785,65.552,234.639,65.552z" />	</g>	<g> <g> <g> <g> <path class="st9" d="M312.215,74.626c-0.2-0.261-0.449-0.43-0.746-0.507c-0.193-0.052-0.608-0.078-1.245-0.078h-1.242 c-0.242,0-0.438,0.196-0.438,0.438v4.223c0,0.289,0.234,0.523,0.523,0.523l0,0c0.289,0,0.523-0.234,0.523-0.523v-1.432h0.683 c0.474,0,0.836-0.025,1.086-0.074c0.184-0.04,0.365-0.122,0.543-0.246c0.178-0.124,0.325-0.294,0.44-0.511 c0.116-0.217,0.173-0.484,0.173-0.803C312.516,75.223,312.416,74.886,312.215,74.626z M311.319,76.053 c-0.079,0.116-0.188,0.2-0.327,0.255c-0.139,0.054-0.415,0.081-0.827,0.081h-0.573v-1.471h0.506 c0.377,0,0.628,0.012,0.753,0.035c0.17,0.031,0.31,0.107,0.421,0.23c0.111,0.123,0.166,0.278,0.166,0.467 C311.437,75.803,311.398,75.937,311.319,76.053z"/> </g> </g> <g> <g> <path class="st9" d="M317.548,75.457c-0.113-0.331-0.278-0.611-0.495-0.84s-0.477-0.388-0.782-0.477 c-0.226-0.066-0.555-0.099-0.987-0.099h-1.474c-0.243,0-0.439,0.197-0.439,0.439v4.306c0,0.243,0.197,0.439,0.439,0.439h1.531 c0.387,0,0.695-0.037,0.926-0.11c0.309-0.099,0.554-0.237,0.736-0.414c0.24-0.233,0.426-0.539,0.555-0.916 c0.106-0.309,0.159-0.677,0.159-1.103C317.718,76.196,317.661,75.788,317.548,75.457z M316.529,77.586 c-0.071,0.232-0.162,0.399-0.274,0.5c-0.112,0.101-0.253,0.173-0.423,0.216c-0.13,0.033-0.341,0.05-0.633,0.05h-0.781l0,0 v-3.434h0.47c0.427,0,0.713,0.016,0.859,0.05c0.196,0.042,0.357,0.124,0.484,0.244c0.127,0.12,0.226,0.288,0.297,0.502 c0.071,0.215,0.106,0.522,0.106,0.923C316.635,77.037,316.6,77.353,316.529,77.586z"/> </g> </g> <g> <g> <path class="st9" d="M322.166,74.479L322.166,74.479c0-0.242-0.196-0.439-0.439-0.439h-2.685c-0.238,0-0.43,0.193-0.43,0.43 v4.23c0,0.289,0.234,0.523,0.523,0.523l0,0c0.289,0,0.523-0.234,0.523-0.523v-1.68h1.726c0.242,0,0.439-0.196,0.439-0.438l0,0 c0-0.242-0.196-0.439-0.439-0.439h-1.726v-1.227h2.069C321.97,74.918,322.166,74.721,322.166,74.479z"/> </g> </g> </g> <path class="st8" d="M344.138,83.535l-5.028-2.903c-0.54-0.312-1.184-0.312-1.724,0c-0.54,0.312-0.862,0.87-0.862,1.493v2.137 h-6.783c-0.404,0-0.732,0.328-0.732,0.732s0.328,0.732,0.732,0.732h6.783v2.205c0,0.623,0.322,1.181,0.862,1.493 c0.27,0.156,0.566,0.234,0.862,0.234c0.296,0,0.592-0.078,0.862-0.234l5.028-2.903c0.54-0.311,0.862-0.87,0.862-1.493 C345,84.405,344.678,83.847,344.138,83.535z M343.406,85.253l-5.028,2.903c-0.113,0.065-0.211,0.028-0.26,0 c-0.048-0.028-0.13-0.094-0.13-0.225v-5.806c0-0.131,0.081-0.197,0.13-0.225c0.029-0.017,0.075-0.036,0.131-0.036 c0.039,0,0.083,0.01,0.129,0.036l5.028,2.903c0.113,0.065,0.13,0.169,0.13,0.225C343.536,85.084,343.519,85.188,343.406,85.253z" /> <g> <polygon class="st11" points="326.123,60.938 326.123,67.758 332.687,67.758 "/> <path class="st11" d="M323.709,81.037v-9.056c0-0.332-0.27-0.602-0.602-0.602H306.81c-0.332,0-0.602,0.27-0.602,0.602v9.056 c0,0.332,0.27,0.602,0.602,0.602h16.297C323.439,81.639,323.709,81.369,323.709,81.037z"/> <path class="st9" d="M333.365,88.279L333.365,88.279c0,0.664-0.543,1.205-1.212,1.205h-18.097c-0.666,0-1.212-0.545-1.212-1.212 v-5.427h10.261c0.999,0,1.809-0.81,1.809-1.809v-9.055c0-0.999-0.81-1.809-1.809-1.809h-10.262v-8.446 c0-0.669,0.542-1.211,1.211-1.211h10.86v7.846c0,0.333,0.27,0.603,0.603,0.603h7.846v13.23c0,0.333,0.27,0.604,0.604,0.604l0,0 c0.333,0,0.604-0.27,0.604-0.604V68.22c0-0.156-0.06-0.306-0.169-0.419l-7.995-8.308c-0.114-0.118-0.271-0.185-0.435-0.185 h-11.916c-1.336,0-2.419,1.083-2.419,2.419v8.445h-4.829c-0.999,0-1.81,0.81-1.81,1.81v9.055c0,0.999,0.81,1.81,1.81,1.81h4.829 v5.432c0,1.331,1.085,2.413,2.419,2.413h18.097c1.334,0,2.419-1.082,2.419-2.412v-0.486c0-0.333-0.27-0.604-0.604-0.604l0,0 c-0.333,0-0.604,0.27-0.604,0.604V88.279z M326.123,60.938l6.563,6.82h-6.563V60.938z M306.81,81.639 c-0.332,0-0.602-0.27-0.602-0.602v-9.056c0-0.332,0.27-0.602,0.602-0.602h16.297c0.332,0,0.602,0.27,0.602,0.602v9.056 c0,0.332-0.27,0.602-0.602,0.602H306.81z"/> </g>	</g>	<g> <g> <polygon class="st11" points="23.945,113.962 23.945,121.076 30.792,121.076 "/> <path class="st9" d="M10.094,123.594v-8.81c0-0.697,0.565-1.263,1.263-1.263h11.329v8.185c0,0.348,0.282,0.63,0.63,0.63H31.5 v7.998c0,0.348,0.282,0.63,0.63,0.63h0c0.348,0,0.63-0.282,0.63-0.63v-8.775c0-0.163-0.063-0.319-0.176-0.437l-8.34-8.667 c-0.119-0.123-0.283-0.193-0.454-0.193H11.358c-1.393,0-2.523,1.13-2.523,2.523v8.809v1.309v17.579 c0,1.388,1.132,2.517,2.523,2.517h18.878c1.391,0,2.523-1.129,2.523-2.516v-3.561c0-0.348-0.282-0.63-0.63-0.63h0 c-0.348,0-0.63,0.282-0.63,0.63v3.561l0,0c0,0.693-0.567,1.257-1.264,1.257H11.358c-0.695,0-1.264-0.569-1.264-1.264v-17.574 V123.594z M23.945,113.962l6.847,7.114h-6.847V113.962z"/> </g> <path class="st9" d="M28.389,139.023l-2.562-0.175c-0.317-0.022-0.596-0.203-0.746-0.483c-0.149-0.28-0.144-0.612,0.014-0.888 l1.281-2.226l12.417-6.626c0.251-0.134,0.539-0.163,0.813-0.08c0.273,0.083,0.498,0.267,0.631,0.519l1.008,1.888 c0.277,0.519,0.08,1.167-0.439,1.445L28.389,139.023z M26.398,137.663l1.725,0.118l11.972-6.389l-0.863-1.617l-11.972,6.388 L26.398,137.663z"/> <path class="st9" d="M38.667,133.457c-0.218,0-0.43-0.117-0.54-0.323l-1.438-2.695c-0.159-0.298-0.046-0.668,0.251-0.827 c0.298-0.159,0.668-0.046,0.827,0.251l1.438,2.695c0.159,0.298,0.046,0.668-0.251,0.827 C38.863,133.434,38.764,133.457,38.667,133.457z"/> <path class="st9" d="M32.336,110.498H9.969c-0.739,0-1.34-0.601-1.34-1.34v-2.819c0-0.739,0.601-1.34,1.34-1.34h22.367 c0.739,0,1.34,0.601,1.34,1.34v2.819C33.675,109.897,33.074,110.498,32.336,110.498z M9.969,106.222 c-0.065,0-0.118,0.053-0.118,0.118v2.819c0,0.065,0.053,0.118,0.118,0.118h22.367c0.065,0,0.118-0.053,0.118-0.118v-2.819 c0-0.065-0.053-0.118-0.118-0.118H9.969z"/> <rect x="17.792" y="106.663" class="st10" width="6.72" height="2.172"/> <rect x="10.462" y="106.663" class="st12" width="6.72" height="2.172"/> <rect x="25.123" y="106.663" class="st8" width="6.72" height="2.172"/>	</g>	<g> <path class="st9" d="M265.835,67.209h-8.861c-1.091,0-1.975,0.884-1.975,1.975v6.895v1.024v13.758c0,1.086,0.886,1.97,1.975,1.97 h14.775c1.089,0,1.975-0.883,1.975-1.969v-8.071h-0.986v8.071c0,0.542-0.444,0.984-0.989,0.984h-14.775 c-0.544,0-0.989-0.445-0.989-0.989V77.103v-1.024v-6.896c0-0.546,0.442-0.988,0.988-0.988h8.866V74.6"/> <polygon class="st11" points="276.866,58.499 276.866,64.067 282.225,64.067 "/> <path class="st2" d="M266.026,67.062v-1.024v-6.896c0-0.546,0.443-0.988,0.988-0.988h8.866v6.406c0,0.272,0.221,0.493,0.493,0.493 h6.406v2.156h0.986v-2.765c0-0.127-0.049-0.25-0.138-0.342l-6.528-6.783c-0.093-0.096-0.221-0.151-0.355-0.151h-9.729 c-1.091,0-1.975,0.884-1.975,1.975v6.895v1.024v1.926l0.985,1.024V67.062z M276.866,58.499l5.359,5.568h-5.359V58.499z"/> <path class="st2" d="M270.138,81.806h-0.986h-2.138c-0.544,0-0.989-0.445-0.989-0.989v-5.724v-0.985v-2.674v-1.421l-0.985-1.024 v1.421v3.698v0.985v5.728c0,1.086,0.886,1.97,1.975,1.97h2.138h0.986h6.215v-0.985H270.138z"/> <path class="st9" d="M294.862,74.143l-6.528-6.783c-0.093-0.096-0.221-0.151-0.355-0.151h-7.801h-0.986h-0.943 c-1.091,0-1.975,0.884-1.975,1.975v6.895v1.024v4.703v0.985v8.07c0,1.086,0.886,1.97,1.975,1.97h14.775 c1.089,0,1.975-0.883,1.975-1.969v-9.51v-1.166v-5.702C295,74.357,294.951,74.235,294.862,74.143z M288.102,68.539l5.359,5.568 h-5.359V68.539z M294.014,80.186v1.166v9.51c0,0.542-0.444,0.984-0.989,0.984H278.25c-0.544,0-0.989-0.445-0.989-0.989v-8.066 v-0.985v-4.703v-1.024v-6.896c0-0.546,0.443-0.988,0.988-0.988h0.944h0.986h6.937V74.6c0,0.272,0.221,0.493,0.493,0.493h6.406 V80.186z"/>	</g>	<path class="st8" d="M71.252,138.55l-14.188-11.351c-0.647-0.517-0.752-1.461-0.234-2.108c0.518-0.646,1.462-0.751,2.108-0.233 l11.965,9.571l19.977-22.474c0.55-0.621,1.498-0.676,2.118-0.125c0.619,0.551,0.675,1.498,0.125,2.117L71.252,138.55z"/>	<g> <path class="st2" d="M294.779,24.621c-0.262-0.423-6.581-10.351-19.768-10.363c-0.004,0-0.007-0.001-0.011-0.001 c-0.001,0-0.003,0-0.004,0c-0.003,0-0.006,0-0.009,0c-13.205,0-19.506,9.942-19.767,10.365L255,24.977l0.2,0.367 c0.056,0.104,5.823,10.386,19.789,10.398c0.004,0,0.007,0.001,0.011,0.001c0.001,0,0.003,0,0.004,0c0.003,0,0.006,0,0.009,0 c13.985,0,19.731-10.297,19.788-10.401L295,24.975L294.779,24.621z M284.306,25c0,5.129-4.171,9.302-9.3,9.305 c-0.02,0-0.037-0.002-0.056-0.002c-5.108-0.028-9.255-4.189-9.255-9.303c0-5.129,4.171-9.301,9.3-9.305 c0.026,0,0.05,0.003,0.075,0.003C280.168,15.736,284.306,19.892,284.306,25z M256.686,25.02c0.956-1.345,4.738-6.107,11.427-8.254 c-2.354,1.972-3.856,4.93-3.856,8.234c0,3.371,1.564,6.381,4.001,8.353C261.183,31.278,257.577,26.396,256.686,25.02z M281.718,33.37c2.451-1.971,4.025-4.988,4.025-8.371c0-3.296-1.495-6.246-3.839-8.218c6.66,2.156,10.45,6.902,11.41,8.242 C292.428,26.405,288.834,31.308,281.718,33.37z"/> <path class="st2" d="M271.51,25c0,1.925,1.566,3.491,3.49,3.491c1.925,0,3.491-1.566,3.491-3.491c0-1.924-1.566-3.49-3.491-3.49 C273.076,21.51,271.51,23.075,271.51,25z M277.054,25c0,1.132-0.921,2.053-2.054,2.053c-1.132,0-2.053-0.921-2.053-2.053 c0-1.132,0.921-2.053,2.053-2.053C276.133,22.947,277.054,23.868,277.054,25z"/> <path class="st2" d="M275,12.503c0.397,0,0.719-0.322,0.719-0.719V8.669c0-0.397-0.322-0.719-0.719-0.719 s-0.719,0.322-0.719,0.719v3.115C274.281,12.181,274.603,12.503,275,12.503z"/> <path class="st2" d="M275,37.497c-0.397,0-0.719,0.322-0.719,0.719v3.115c0,0.397,0.322,0.719,0.719,0.719 s0.719-0.322,0.719-0.719v-3.115C275.719,37.819,275.397,37.497,275,37.497z"/> <path class="st2" d="M263.008,14.024c0.14,0.14,0.324,0.211,0.508,0.211s0.368-0.07,0.508-0.211c0.281-0.281,0.281-0.736,0-1.016 l-2.202-2.202c-0.281-0.281-0.736-0.281-1.016,0c-0.281,0.281-0.281,0.736,0,1.016L263.008,14.024z"/> <path class="st2" d="M286.967,35.951c-0.281-0.281-0.736-0.281-1.016,0c-0.281,0.281-0.281,0.736,0,1.016l2.202,2.202 c0.14,0.14,0.324,0.211,0.508,0.211s0.368-0.07,0.508-0.211c0.281-0.281,0.281-0.736,0-1.016L286.967,35.951z"/> <path class="st2" d="M286.471,14.235c0.184,0,0.368-0.07,0.508-0.211l2.202-2.202c0.281-0.281,0.281-0.736,0-1.016 c-0.281-0.281-0.736-0.281-1.016,0l-2.202,2.202c-0.281,0.281-0.281,0.736,0,1.016C286.104,14.165,286.287,14.235,286.471,14.235z "/> <path class="st2" d="M263.02,35.951l-2.202,2.202c-0.281,0.281-0.281,0.736,0,1.016c0.14,0.14,0.324,0.211,0.508,0.211 s0.368-0.07,0.508-0.211l2.202-2.202c0.281-0.281,0.281-0.736,0-1.016C263.756,35.67,263.301,35.67,263.02,35.951z"/>	</g>	<g> <circle class="st9" cx="125" cy="125" r="22.5"/> <g> <g> <g> <g> <path class="st13" d="M129.537,116.222l0.555,0.648c0.463,0.509,0.37,1.296-0.139,1.759l-7.775,6.387l7.729,6.433 c0.509,0.417,0.602,1.203,0.139,1.759l-0.509,0.602c-0.417,0.509-1.203,0.602-1.759,0.139l-9.256-7.729 c-0.787-0.648-0.787-1.851,0-2.499l9.256-7.729C128.334,115.621,129.12,115.667,129.537,116.222z"/> </g> </g> </g> </g>	</g>	<g> <circle class="st9" cx="175" cy="125" r="22.5"/> <g> <g> <g> <g> <path class="st13" d="M170.463,133.778l-0.555-0.648c-0.463-0.509-0.37-1.296,0.139-1.759l7.775-6.387l-7.729-6.433 c-0.509-0.417-0.602-1.203-0.139-1.759l0.509-0.602c0.417-0.509,1.203-0.602,1.759-0.139l9.256,7.729 c0.787,0.648,0.787,1.851,0,2.499l-9.256,7.729C171.666,134.379,170.88,134.333,170.463,133.778z"/> </g> </g> </g> </g>	</g>	<g> <circle class="st13" cx="225" cy="125" r="22.5"/> <g> <g> <g> <g> <path class="st9" d="M229.537,116.222l0.555,0.648c0.463,0.509,0.37,1.296-0.139,1.759l-7.775,6.387l7.729,6.433 c0.509,0.417,0.602,1.203,0.139,1.759l-0.509,0.602c-0.417,0.509-1.203,0.602-1.759,0.139l-9.256-7.729 c-0.787-0.648-0.787-1.851,0-2.499l9.256-7.729C228.334,115.621,229.12,115.667,229.537,116.222z"/> </g> </g> </g> </g>	</g>	<g> <circle class="st13" cx="275" cy="125" r="22.5"/> <g> <g> <g> <g> <path class="st9" d="M270.463,133.778l-0.555-0.648c-0.463-0.509-0.37-1.296,0.139-1.759l7.775-6.387l-7.729-6.433 c-0.509-0.417-0.602-1.203-0.139-1.759l0.509-0.602c0.417-0.509,1.203-0.602,1.759-0.139l9.256,7.729 c0.787,0.648,0.787,1.851,0,2.499l-9.256,7.729C271.666,134.379,270.879,134.333,270.463,133.778z"/> </g> </g> </g> </g>	</g>	<g> <circle class="st14" cx="325" cy="125" r="22.5"/> <path class="st9" d="M322.387,136.394l-11.04-8.833c-0.89-0.711-1.034-2.008-0.322-2.896c0.711-0.891,2.01-1.033,2.896-0.322 l7.985,6.388l13.92-15.66c0.757-0.85,2.057-0.928,2.91-0.171c0.85,0.757,0.927,2.059,0.171,2.91L322.387,136.394z"/>	</g></g></svg>